/* XPM */
static char *becaaf20f3a048ce9ee30302f0739708ecN0Qj5bRexemUoZ[] = {
/* columns rows colors chars-per-pixel */
"50 50 138 2 ",
"   c #1F2935",
".  c #272926",
"X  c #22262A",
"o  c #26292C",
"O  c #292C2E",
"+  c #2F342E",
"@  c #30352F",
"#  c #35382F",
"$  c #393D2E",
"%  c #252532",
"&  c #252B35",
"*  c #2A2C33",
"=  c #242639",
"-  c #29253E",
";  c #262D39",
":  c #2B2D3B",
">  c #312F3A",
",  c #2E3236",
"<  c #2D323D",
"1  c #333534",
"2  c #363A35",
"3  c #393937",
"4  c #33343C",
"5  c #38373C",
"6  c #353A3C",
"7  c #3A3B3C",
"8  c #3C413F",
"9  c #42453E",
"0  c #252644",
"q  c #282746",
"w  c #262A42",
"e  c #2C2D44",
"r  c #2B2748",
"t  c #2D2D4A",
"y  c #312E45",
"u  c #322F4A",
"i  c #2D3243",
"p  c #2D3B44",
"a  c #2E334B",
"s  c #283848",
"d  c #333443",
"f  c #383644",
"g  c #353A44",
"h  c #3A3C44",
"j  c #33344B",
"k  c #38364A",
"l  c #353B4B",
"z  c #3A3D4B",
"x  c #2D2D52",
"c  c #2D3451",
"v  c #343552",
"b  c #393551",
"n  c #363B52",
"m  c #393D51",
"M  c #3A3D53",
"N  c #3F3E50",
"B  c #3D3E52",
"V  c #3A3F55",
"C  c #393D56",
"Z  c #393F57",
"A  c #3D3D55",
"S  c #35375D",
"D  c #333C5C",
"F  c #3A3E59",
"G  c #3B3D5A",
"H  c #3C3D64",
"J  c #403F4D",
"K  c #403E54",
"L  c #344045",
"P  c #374045",
"I  c #384244",
"U  c #3A4147",
"Y  c #3D4244",
"T  c #3D4246",
"R  c #3C4447",
"E  c #37414B",
"W  c #36434B",
"Q  c #37414D",
"!  c #384349",
"~  c #3E424B",
"^  c #39414C",
"/  c #3C424C",
"(  c #3E424E",
")  c #3E454D",
"_  c #3E4849",
"`  c #354151",
"'  c #364250",
"]  c #354254",
"[  c #394052",
"{  c #3B4253",
"}  c #3F4551",
"|  c #3B4254",
" . c #3C4154",
".. c #3F4656",
"X. c #3E4852",
"o. c #36405D",
"O. c #3B4359",
"+. c #39405A",
"@. c #3F445A",
"#. c #3C405D",
"$. c #3E4A59",
"%. c #354060",
"&. c #3B4167",
"*. c #454640",
"=. c #454742",
"-. c #404146",
";. c #424445",
":. c #434943",
">. c #434945",
",. c #404348",
"<. c #414649",
"1. c #424649",
"2. c #41444B",
"3. c #42474B",
"4. c #41444C",
"5. c #42454E",
"6. c #44474E",
"7. c #474948",
"8. c #44494C",
"9. c #484D49",
"0. c #4C504D",
"q. c #414052",
"w. c #424552",
"e. c #424453",
"r. c #444652",
"t. c #474A51",
"y. c #444A53",
"u. c #4A4D54",
"i. c #43455A",
"p. c #444A5A",
"a. c #4B4B5B",
"s. c #495056",
"d. c #445159",
"f. c #4B525A",
"g. c #515256",
"h. c #4B4E61",
"j. c #455163",
"k. c #465069",
/* pixels */
"E ! 8 6 L L L L h h g g h h v z z k l ( >.2.7.1.q.F v 2.>.t.w.g > l z j j j v v v m ^ z m Z Z n Q Q ",
"E ! L 8 L L L E ! g g g h ~ n z [ z l z 2.2.7.1.r.F n 2.>.t.w.k < g h j l j v v v b m z z V n l W Q ",
"! U 6 g U L g L h 5 e f z 4.u b z z h z 2.;.9 J J N b ;.=.( z z z ~ 2.w.z ! J m m [ ^ n m m V  .' l ",
"A  .z m [ [ ' z h h f h h 6 i e j z J k f 7 1 5 z h Y f f d j N i.q.6.r.( ~ ) w.[ ^ ^ ' ' b m  .' z ",
" .] z Q { m [ z g h f f f h e u j z J k f 7 4 f f =.7 f h j j z p.q.6.2.~ ~ ) } ( ^ z  .m n m m ] l ",
"i.n m '  .V +.m z h z h 6 , d e y h h u > 5 4 f k 7 7 y d f k b b z h h ( ( z N ..h h z N V k l ^ l ",
"@.l l ' ' ] ' Q z z z g i < d u u 4 f u u 5 # f u 5 5 > 4 z m j a d : e q.z j z N d 4 f z N e i l g ",
"..p l ' n ] ' Q h z z g p ; d j y f f u k 5 3 f k > 4 4 1 z  .j d d : < w.A k b q.d > f h K e 4 l p ",
"#.F V z m  .m m z ( ! g l n 4.g e e d d 4 < 4 1 5 y y # > b b u d h h 4 d f f f j 4 4 d f d k e w l ",
" . .^ E z z O. .q.( z z ^ [ t.z g j d d f g h h > f f 1 3 f k d d h h d f e 4 u u 4 > e : d i i g z ",
"E ( 2.2.) ^ ....( z z Q [ [ ^ z n V l d k { 2.k j h J J 9 h 4 4 < 1 , < e f 4 j j f 4 t i 4 d < < g ",
"z ( ) 2.) z ..} ! E z Q m ' } ' m b z d d { =.z u 7 7 h 9 6 4 , 4 , : < y y 4 u j d d t < i i i < < ",
"h h z ~ 2.w.( } X.^ z Q ' m z l V G V l z @.~ [ N h J 4.=.Y Y 7 g 6 6 h z z h j j g d v j g d l g 6 ",
"6 4 g h ( ) ^ ( Q z Q [ ' ^ ^ Q V  .m l z  .m r.r.f > 4.2.2.;.( 8.Y Y ~ } ( ( l v ! ( V [ ( l ^ y.~ ",
"4 g g z ( ) ! ( ( z Q [ ] X.Q Q ] O.[ z z ..N i.t.l d =.4.2.2.2.8.Y U ~ w.z ~ z b E ^ V [ z l [ y.! ",
"h h l z z ( z ! Q Q l Q w.w.X.} V n z z ^ z b 7.6.d y 7.t.~ z q.w.w._ ~ R [ ~ A O.2.y.@.i.y.z w.y.R ",
";.R z N ( ( z z | ..[ ^ ^ ) 2.{ z l m w.2.z [ ( h d g 2.q.z z 2.} X.} Q z ' W | @.8.y...t.u.8.t.2.h ",
"4.~ z N R Y h ( q.w.[ z ( w.7.) z n ( w.) z { ~ z d g ~ 4.h z J ..w.) Q l ] .. .@.y.8.i.t.u.w.2.1.7 ",
"J 7 d z h h 2.( a.h.p.( E R Y { E z w.u.t.z w.k d 6 Y j 4 6 4 g l Q Q n D ' Q  .| _ _ ) 2.7.8.8.8.7.",
"5 4 h j a h z k ~ } ..i.i.2.Y q.p.i.t.s.2.z Y d g 7 7 e d d l g a l  .F m m ]  .| z ! ! ;.R R 2.8.2.",
"f y 5 f j d j g h d g K f.0.4.7.9.g.a.J 5 7 f l ~ U 4 i h ~ z g [  .m l m Z Z C m m ^ ^ w.) w.z g z ",
": y 5 d d d h d d d l 2.u.0.4.7.0.g.a.K h 7 f k ! 7 4 i ~ ~ z z z m m l ' m V F m ] ^ ^ ) w.w.! h z ",
"y t 4 7 z h d 4 < * % g ;.7 7 h 4.4.4 * O * * : 4 6 4 k h ( ! z m ..V n V D F n l m m l ( |  .j j z ",
"k d : h h h 1 1 1 * % * d 4 1 4 4 * . . o % . o O 1 7 h 6 d z z j l C n v v F v n +.' m  .] C l l b ",
"k i : h ;.7 1 1 1 * % : d > 1 4 4 & X . o % X X O , h h 4 d z z j z +.n c S C n n O.] m ]  .m l a [ ",
"~ z e u h 5 7 2 5 6 * % % * : * o X X = & X X O + 2 6 2 2 g j j e a a t e v D n m | @. .+.[ ] z g g ",
"Y 2.v j h 7 k < f h 4 * * @ & ; < < p & & < : 1 2 7 g 3 ;.g < < i l t t c v a j l j a a a j [ ) E E ",
"2.2.j t h 7 j d g ! 4 O * @ ; ; , 6 < ; & < : 1 2 h 7 7 z d d : j j i r v c l l l l l c a l X.) E I ",
"z z l j h z t w f k h h Y 9 4 h  .t.Y 2 6 [ z h 7 z z 7 >.h 4 4 R [ l d F ' a g i < i c t i i.u.8.E ",
"u l j d 6 n m z z 4. .q.2.( h ;.Y Y U ~ 2.;.K ( 4.A N 4 h ;.Y 7 Y 2.h z m O.i i l p V @.F j p.f.Y U ",
"u e e 4 i v ^ w.4.J r.t.4.N k 4.;.2.7 2.8.q.[ 8 *.2.h z x ( i.! l m N A z z v A ! ! 8.0.i.K p.y.8.~ ",
"u y d 4 i v ^ w.4.w.4.q.4.[ k J J h 7 2.r.q.{ I :.2.z z x R i.k l ^ V A z h v m ~ E 8.0.i.A a.a.2.! ",
"4 4 h h z ( d ( z f h f J z 7 h 7 h J J 2.2.w.8.>.2.z 2.v 4.r.g d z z } z z j 4.u.} g ( y.a.w.4.5 f ",
"3 3 4 f f f d z z 4 > f f J $ # 5 z J h J 7.( 8.9.( ! u.k 2.t.R h Q (  .( v f h w.X.j z 4.u.J 4 4 5 ",
"8 3 4 f f 7 i z f y 5 5 k h $ # 2 z 2.h J 2.2.7.7.~ ~ 9.2.2.t.! z ! ( 4.z b 4 U y.X.l j ;.a.J 1 1 7 ",
"=.Y g f d 4 d f 4 5 h J h h 2 # 6 h h h ;.=.h 2.) z ~ 9.2.4.e.! ! w.w.z z j , < g R ( C h h 5 # 3 3 ",
"n E y._ i w < < > 4 h 7 7 4 f h h 7 2 8 ;.;.( w.t.w.~ 7 9 z g j z ( w.K k d h z l 2 h n f 5 5 5 1 4 ",
"c E y._ i w 4 < 1 7 h h 1 4 h z h 7 I 8 Y 2.~ ) w.q.~ R *.z g k z ( w.A j d ! b a 7 L N z 4 4 3 3 1 ",
"o.$.d.X.s c h ! h h h 4 4 h A A z 7 6 7 Y h h m [ 4.4.7 >.k e 4 d z  .z j f k V ' 6 7 g k f 5 7 4 7 ",
"k.k.$...p...' i.i.J k g d j j N z f g z z h d u j z q.k 1.z e d d 4 g d y k w g g h h 6 d y z h g d ",
"y.p.l m s._ F i.i.k k V j w 4 j l v S b z l < u j h q.b 4.d ; 4 6 < d 4 y x a < 6 s h 8 4 i z 2.g < ",
"y.p.j m u.Y V j.i.l j k t w < k v v v V z d e u r k 4.b 4.z ; d 6 , d 4 4 v t 6 2 a l I 4 e z ( g i ",
"g e q z ) ~ h V A h d e 0 ; x q j N  .t k w.v * h H H 4.S A r j l i i h > t q a l i p ^ g y h ;.l a ",
"j i j V z U g k A z f e q e e t j j j a l z D ! i.H H p.S b i.l s l l : d w 0 x a < 6 g n j l z ) } ",
"g i v V z ( g m K z d r q e r u j j b j a Q D Q y.&.&.i.S V i.n i Q s < i < 0 r s , 6 L j j j z ) } ",
"i i F G s g i l z z f u r e - q t a j i l n D ] j.&.&.$.D O.k.' s ] Q i z a t c v p , ; i a a n ) y.",
"< a V n i i g w e d d r t y * = q n z p s @.%.] $.o.D l D +.] ` Q ] $.$.z D [ [ ^ s w   & a c n z N ",
"< i V n i p < i i 4 d t u e = = w a z g a O.D ] $.%.o.l D ] ] ` ] ] $.p.m n  .m V l ;     a c l z m ",
"< g l ' l < 6 i i 6 g i a d , i i s L L L ] o.] ] ]  .l O.] j ` ] Q p.j.z v V X.Q j a i ; n Q ( n v ",
"g U ! y.} L L p ) 8.! l [ [ E Q l p p ! W ` ` ' ' X.z z  .V V z z ' ....l g l V n j l ' a ] ) ^ j c "
};
