/* XPM */
static char *c8f7dafb7c5c403da7f1d834498a297aeRKyhKcXQcZmOwCG[] = {
/* columns rows colors chars-per-pixel */
"50 50 232 2 ",
"   c #080A05",
".  c #0B0B0C",
"X  c #140C08",
"o  c #0C140B",
"O  c #14130D",
"+  c #1A170B",
"@  c #060D12",
"#  c #0D0D16",
"$  c #0B0D1B",
"%  c #130E16",
"&  c #0B1413",
"*  c #131513",
"=  c #141A15",
"-  c #191A15",
";  c #14141C",
":  c #1A151A",
">  c #151A1B",
",  c #1B1B1A",
"<  c #221B1B",
"1  c #0B2411",
"2  c #1A241A",
"3  c #22211C",
"4  c #27271D",
"5  c #24331D",
"6  c #161727",
"7  c #1C1D22",
"8  c #1D1D2B",
"9  c #1A1430",
"0  c #221C28",
"q  c #251F33",
"w  c #1C2223",
"e  c #1E2C27",
"r  c #1C232A",
"t  c #1D2734",
"y  c #1E3032",
"u  c #232323",
"i  c #262726",
"p  c #2A2523",
"a  c #2B2A25",
"s  c #24242D",
"d  c #252B2C",
"f  c #2C2C2C",
"g  c #342D26",
"h  c #322D2D",
"j  c #2B332D",
"k  c #373528",
"l  c #32332D",
"z  c #232533",
"x  c #2A2533",
"c  c #252B34",
"v  c #2B2C34",
"b  c #24253C",
"n  c #29263C",
"m  c #272C3B",
"M  c #2C2D3B",
"N  c #332A34",
"B  c #312E3E",
"V  c #273535",
"C  c #2D3335",
"Z  c #2D333C",
"A  c #2E393D",
"S  c #333434",
"D  c #393534",
"F  c #333A34",
"G  c #3A3A35",
"H  c #34343C",
"J  c #3A363D",
"K  c #343A3C",
"L  c #3A3B3C",
"P  c #443D38",
"I  c #3D433E",
"U  c #3B463D",
"Y  c #494537",
"T  c #42433D",
"R  c #4F4E3D",
"E  c #251D42",
"W  c #1F2E43",
"Q  c #262C43",
"!  c #2C2C43",
"~  c #2C2D4B",
"^  c #322E43",
"/  c #392E42",
"(  c #312E4B",
")  c #2D3342",
"_  c #2D344B",
"`  c #2D3948",
"'  c #333443",
"]  c #3B3743",
"[  c #343B43",
"{  c #3B3C44",
"}  c #34344A",
"|  c #38374A",
" . c #353B4C",
".. c #3B3D4C",
"X. c #2C2E53",
"o. c #342F54",
"O. c #2D3854",
"+. c #343553",
"@. c #363554",
"#. c #343C53",
"$. c #3B3D53",
"%. c #343B5A",
"&. c #3A3E5C",
"*. c #393C65",
"=. c #423C44",
"-. c #413D4C",
";. c #403F51",
":. c #354144",
">. c #3C4244",
",. c #3E4842",
"<. c #35424C",
"1. c #3C434C",
"2. c #3D494B",
"3. c #364254",
"4. c #3C4253",
"5. c #3E4954",
"6. c #3C445B",
"7. c #3B475C",
"8. c #3D4666",
"9. c #3D4962",
"0. c #354171",
"q. c #424444",
"w. c #4A4544",
"e. c #454C45",
"r. c #4B4A43",
"t. c #43444B",
"y. c #49444C",
"u. c #444A4C",
"i. c #4B4C4D",
"p. c #534B43",
"a. c #524D4B",
"s. c #574C48",
"d. c #4A534A",
"f. c #58564B",
"g. c #424453",
"h. c #454B54",
"j. c #4A4B52",
"k. c #43445C",
"l. c #494458",
"z. c #444B5C",
"x. c #4B4D5A",
"c. c #524B56",
"v. c #475253",
"b. c #4C5253",
"n. c #45525B",
"m. c #4B525D",
"M. c #535453",
"N. c #5B5554",
"B. c #545B55",
"V. c #5B5A54",
"C. c #52545A",
"Z. c #555A5C",
"A. c #5A5B5B",
"S. c #605A4C",
"D. c #645B58",
"F. c #5A625B",
"G. c #6E694E",
"H. c #63655C",
"J. c #68675A",
"K. c #464B63",
"L. c #4D5665",
"P. c #525463",
"I. c #5E5E63",
"U. c #5A5A69",
"Y. c #645D65",
"T. c #5C6364",
"R. c #5A6369",
"E. c #636363",
"W. c #6B6663",
"Q. c #656964",
"!. c #63656A",
"~. c #646B6C",
"^. c #6B6D6B",
"/. c #726C65",
"(. c #746C6C",
"). c #6B7268",
"_. c #74726C",
"`. c #77786A",
"'. c #656D73",
"]. c #6C6D72",
"[. c #776B73",
"{. c #6F7777",
"}. c #747374",
"|. c #7A7776",
" X c #757973",
".X c #7B7B73",
"XX c #75757A",
"oX c #7C7C7B",
"OX c #827C68",
"+X c #857979",
"@X c #937E79",
"#X c #7A8178",
"$X c #878579",
"%X c #81837D",
"&X c #988B7B",
"*X c #7B7B83",
"=X c #857E84",
"-X c #7B8282",
";X c #818383",
":X c #8A8A84",
">X c #888987",
",X c #948A85",
"<X c #8B9188",
"1X c #9A958E",
"2X c #888E94",
"3X c #9F8F90",
"4X c #989595",
"5X c #9C9A93",
"6X c #A0958C",
"7X c #AC8F91",
"8X c #A49C98",
"9X c #96A09F",
"0X c #A7A49B",
"qX c #B6AC99",
"wX c #A49AA0",
"eX c #9DA8A2",
"rX c #AAA7A5",
"tX c #B7A9A6",
"yX c #B2B0AB",
"uX c #BAB5AC",
"iX c #B8B6B3",
"pX c #C2BAAD",
"aX c #C6BAB7",
"sX c #BCC3BB",
"dX c #C9C4BA",
"fX c #D6C7B8",
"gX c #E2D0BA",
"hX c #CABBC2",
"jX c #D6CBC4",
"kX c #DFD4D2",
"lX c #E7DCD0",
"zX c #F4E8D8",
/* pixels */
"' ..H [  .m C g.' | =.| | { K K J D H ' _ ) m g.] [ [ m K T e.g.$.| } N.q.T ' ' H v K H H m d V u.k.",
"! ] | H ] ~ C | ' ' o.) } ' Z ) H H H ' _ [ [ P.y...' ] K J L [ t.i.Y.J.v L m H H H Z C H m v ) ) 4.",
"X.} ..' | ~ S ) } B o.m | ..^ ) ) ] | A !  .C.U.t.t.4.6.' ' H S q.Q.:Xr.u x ~ S K Z Q c m z '  .Q | ",
"m ..[ 3.+.( ] / H ~ O.) ..-.} _ ) ` t.3.{ -.=Xi.C j.1.e.=.' J K <.2X8X* x v c x C x s x f S C L F B ",
" .5.2.h.$.1.`  .Z Q W A } } H $.<.3...n.h.U.=Xw.C u.u.,.>.( ' F.t.M.Y , ] | m c d s v ) ' [ K K H ' ",
"%.9.7.7.3.5._ #.` ) ` A H ! ' ..<.<...L...=XD.h v 1.u.t.b...{ H.q.f X a -...' x v ' |  .#. .1.[ ) m ",
"O.*.&.8.%. .%.6.h.| $. .C ' +.=.<.<.<.3...>XP u ] ..y.u.A.q.{ h.] l   S ] ..4...x.h. . .<. . .| ' H ",
"#.4.<. .4.l.4.n.h.<. . .#.%.g.A.{.#Xj.3.R.F * v t.] -.-.^.-.t.K ] t.=.Z 1.[ b.*X].x.K.n.v.x.Z { b.J.",
"} 4.1.1.g.A.E.~.T.g.#.4.3.#.b.,XpXpXY.` R.3 L C.H.{ =.a.E.z ^ L D.OXD.< P P W.<X XR.9.8.7.,.Z U {.oX",
"} %.3.5.g.Y.D.W.}.m.K.K.5.:.B.tXlXaX+X .2.p !.}.#Xu.] V.V.6 M j.@X7X@X< N P D.%XH.R.7.0.8.[ 1.v.2X;X",
"$._ #.3.#.%.$.k.F.G.G.W.h.Z Y wXzXgX7X=.e a ,X`.4XR k S.4 7 v J.1XqXpXs.> j < 2 2 5 5.9.L.1.F.).2Xh.",
"..) _ #. .( ' | T Y Y N.1.v P OXlXfX3Xq.w k aX0X.Xf.4 J.X Z [ $X/.,X1XD., K p X = 2 ` z.3.&.R.>X#X1.",
"' ( ~ ~ ] ( i.$.v : < -.m z H d.uXyX`.H ; f.kXzXp.M.: M.2  .` -Xg G.r.w.w >.y., d C ~ 4.[ K.!.<X~.[ ",
"! ( ! ! { ..I  .' x x I. .8 c a a.e.l b 7 a.0XqX[.w.b { - } _ ~.X g h u & w H C ] { $.#.| R.+X]. .w ",
"! } ! ~ I :.e._  .b.t.{.j.6 t v $ . , b z =.G.S.+XD Q z 7 ^ ( j.o 2 a.< . @ ; j.t.b.C.P.F. X_.i.6 $ ",
"} $.M ' e.2.B._  .XXE.Q.e.; M ] t s J n q T Y Y P l t 6 t.-.y.' o j wXM.: . ; j.t.%X).rX0XoX= - 6 t ",
"'  .' t.).T.).6.' 2X+XB.T.H z =.C L t.y.t.i.w O < S ~ t E.V.J.] r d.aX8XD.s.T.a.B._._.=X.Xj.. w r ' ",
"H x -.!.5X-XJ.z.M rX4XL >XY.% x D e.q.A.#XP.> o $ F  .@.+XJ.$Xc.t.Y.tXjXtX6XiXa.A.g (.n 7 * d ` [ u.",
"M [ ].rXyXe.V.b.s.>X.XH.tX+Xe.l.}.E. .|.uXa.A.K 6 t H { U.V.F.~.+X+X0XtXiX<XY.U F < k 7 x C _ ` ..4.",
"Z u.>XiX>Xi a.h.].J.f._.tX,XF.t.XXU.! oXpXw.oXT.8 r y.C.{ ] [ >X1X8X4X1X=XA.# 4 i : q z $...6.X.4.Z ",
"A 1.oXE.D.f w.{ =Xp.g W.iXyXU r f 0 Z  X$Xl %X_.; h yXiXj : 0 1X1XaX'.1XF 5   w F ) !  .$.4.O.O.b.V ",
"<.j.*XW.D D L M Y.p 4 d.rXyXr   = 7 L #X/.p N._.q.p :X,Xf.a p.8X XwX!./.V 2 o z ] <.' 2._ L.#.8.h.Z ",
"<.h.4X8X< h u v S X p K <XrXa & K { t.#XH.f g `.oXg P J >XV.&X8Xe.i. Xs.F.F % | 1.<.,.U u.'.7.4.h.K ",
"A v oX5XD f - S a * 2 - ).:XO y ) ' ^ U.M.P s..X4X(.1XV. Xy.Z.a.q.S !.rX>XG 6 ] { [ [ e.~.>Xh.x.x.t.",
"Z i i.}.T u O S e.a = X U r.< 1.' -.=.P J D +X,X8XtXjX&XB.y.x 6 D p j.jXrXi.0 ] {  . .D.=X-Xh.P.l.t.",
"-.] r 6 > ; & U F., > c 2 4 w.T N.8XaXR | 0 rXdX*XJ.&XOXY ].L a 7 0 0 P qX^.L | } +.j.`.Y.* =.K ....",
"k.>.Z m Z u , A.] # 6 [ a.w.u O D.rXlX<XI.s 1XdXs.7 :XD.* 5XA.K ' ' ] 3 eXQ.L m M #.Y.W.h 6 H m j.{ ",
"$.1. .[ u.t.p./.: < C U.;XV.  e +XhXdX).U ; _.1X@XD s._., F.M.>.$.| ' = Q.Q.k t.....M.c.X M  .~ t.H ",
"..1. .<.v.^.$XS.; N y.|.0X+X+ U  XtX5XR 2 & T./.aXD.+ _.s v t.:.4.$. .7 e. XP ] t...Z.S * | .._ H M ",
"t.h.6.1.>.}.#X{ ) ! l.!.wXhXi.5 S a.#X,.4 z u.B.tX,X  s m ' 1.h...4.4.Z G }.a.x t.H >X1 r ' ] Z ) { ",
"4.l.$.6.>.T.~.Z 4.M l.+X,X0XN.d = 3 ,.l 2  .[ :.-X$Xr., }  .` 1.{ t.1.t.j F.$Xx Z A.W.1 y V { L  .$.",
"<.t.$.4.1.i.b.[ ..N y.1XOXG.D j = w 2 o u  .t.U 1.r.<Xi.) 4.r 1.1.j.i.g.G k rXs.S 2X> 2 c ! $.{ g.1.",
":.1.6.#.1.1.t.$.g.0 N 6X$XV.L L C C H p v g.H { [ g.~.C.4.c @ '.] { G t.l + +X0X).#X% y V +.h.6.h...",
"%.<.3.3.t.t.k.6...d d }.oXB.{ ..q.q.t.S $.{ L >.k.@.+.K.3.d A *X[ | L $.f 3 -.0X$Xp.6 V :.g.$.-.t.1.",
"6.{  . .h.R.U.) [ Z.u.a q.{ c H d v { H | >.j.q.%.q o.} 3.,.9Xg.C.C...t.{ [ j L U f 6 K :...] ' { { ",
"%.{ ..<.C.*XXXB c '.T.7 s H C F C c ' ) C S =.q.} E ~ _ V >XeX7 v.C.6.[ g.g.f ; c : n { { L H L D L ",
"%...} [ ~.5X4Xn 7 !.].| m ] [ [ A C Q ) C c d C n ( ` <.F sXA.# { 1.u.' u.d.[ z b * ....{ L G L G G ",
"@. . .h.<XiXrX; s z.x.| $.$.g.4.[ _  .#.Z m c V z ) A j H.<XJ 9 g.' b.D. X X X!.) # t.:.{ L G G S D ",
"+.4._ m.5XpXyX. z ..m } $.$.h.6.....4...<.) H m t y V F /.J x ! k.| l./.}.}.`.).V > { [ | ' S K S H ",
"O.b.z K >X0X0X> s $.| $.<.<.1.$.h.h...1.u.} S B d > C i.P 8 8 ! ^ g.} T N x 5 4 2 d ] A K ) H H H ) ",
"%.i.Z Z >X;XJ.2 N t.4.4.2.2.<.>.C.C.1.T.A.U.H.XXE.2 7 t.% 6 M ~ ' 4.} ' 6 ; 2 o 2 V } K  .} ' B ' [ ",
" .h. .1.*XS.j , { q.w.t.t.y.P q.c.j.r.oX;X;X,XuX5Xp ; # & V [ K [  .{  .Z ) _ ) ~ C H +.t.X.:.~ `  .",
"B.l.l.j.w + , b J G S H G K [ l.0 f 0 t.t.7 u s # # ! m  ._ } %.9.3.h.%.h.*.3.| } ~ _ C X.Z #.>. .1.",
"h.] 1.i.{ L L m S G F H { {  .} f l m K v % s q $ r } _ #.} #.O.3.%.4.%.#.O.4.h.6.#...A Z _ 1.4.<.<.",
" .L { T z.l.i.K [ K L 4.&.g.$.#.e.U _ F t $ m m s ) _ _  .$.$.O.` #.#. . .#.3.g.&.4.#...K @...} 4.<.",
"' t.] S ..] t.q.4.[ :.z.*.8.z.n.L.d.<.,.) 9 Q ` <.5.<.4.1.1.6. .4.6.6.<.$.6.1.4. .+.#.$.1...$.( $. .",
"' 1.' S | | { 4.6. . .z.6.&.x.v.9.v.L.M.t. .6.K.K.L.3.6.<.<.4. .4.6.6. .6.&.[ $.4.6.6.@.6.>.| | +.| ",
"H 1.b ' ' K { ~ 3.3.%.l.1.3.7.2.*.1.P.a.u.z.K.L.K.U.h.5.:.1.4.} ..}  .6.| *.L #.+.6.k.6.$. .1.6.X.] ",
"H ~ K K m H m Z _ h.7.O.K.5.O.K.8.8.$.@.g.g.6.k. .6.v.>.' H Z 4.! M #.$.~ X.} 4.3.1. .u.m.4.n.3.{ D ",
" .} { K | [ ) C ~ 3.1.O.9.7. .8.+.X.$.} | u.} _ :.@...4.} [ ' ..} ' $. .m } ..3.<.h.| h.z.5.,.{ Y P "
};
