/* XPM */
static char *_5b374fabba546d9efac2787d744595aJ2IUGvAWMESwKAvq[] = {
/* columns rows colors chars-per-pixel */
"50 50 205 2 ",
"   c None",
".  c #640B0D",
"X  c #620E0E",
"o  c #660C0E",
"O  c #670D0F",
"+  c #680C0F",
"@  c #650C10",
"#  c #6D0F10",
"$  c #720D11",
"%  c #710C12",
"&  c #710E13",
"*  c #730E12",
"=  c #760D11",
"-  c #770F10",
";  c #760F13",
":  c #7C0F12",
">  c #6A1010",
",  c #6C1011",
"<  c #6E1011",
"1  c #7B6B76",
"2  c #7C6D74",
"3  c #7E6D75",
"4  c #7C6C76",
"5  c #776F7C",
"6  c #7A6C79",
"7  c #7B717C",
"8  c #7F737F",
"9  c #941415",
"0  c #961416",
"q  c #991115",
"w  c #991216",
"e  c #9A1216",
"r  c #9D1215",
"t  c #9B1516",
"y  c #9C1416",
"u  c #9F1717",
"i  c #901817",
"p  c #931918",
"a  c #961E1F",
"s  c #9F1918",
"d  c #9D181B",
"f  c #981A1E",
"g  c #9B1D1E",
"h  c #A41316",
"j  c #A71717",
"k  c #A81617",
"l  c #A11F1F",
"z  c #AF191B",
"x  c #B21818",
"c  c #B41A1A",
"v  c #B41A1C",
"b  c #9A201F",
"n  c #9F1C22",
"m  c #A11C21",
"M  c #A31E23",
"N  c #A41D23",
"B  c #AC1B20",
"V  c #A91E21",
"C  c #AB1F22",
"Z  c #B81E26",
"A  c #AD2124",
"S  c #B02125",
"D  c #BB2024",
"F  c #BE2327",
"G  c #BE2426",
"H  c #BF2628",
"J  c #BE282A",
"K  c #BD282C",
"L  c #C22327",
"P  c #C12528",
"I  c #C32728",
"U  c #C52728",
"Y  c #C5292A",
"T  c #C82828",
"R  c #C92929",
"E  c #C8282A",
"W  c #CD292A",
"Q  c #CE2A2B",
"!  c #CC292C",
"~  c #CE282C",
"^  c #D02A2C",
"/  c #C2312E",
"(  c #CA302E",
")  c #C63230",
"_  c #CD3331",
"`  c #E83B3F",
"'  c #A34C1F",
"]  c #A54E21",
"[  c #A25020",
"{  c #A35121",
"}  c #A45723",
"|  c #A85823",
" . c #A85825",
".. c #AF6027",
"X. c #C3652F",
"o. c #C2692F",
"O. c #C57133",
"+. c #C57433",
"@. c #C47034",
"#. c #C67534",
"$. c #C77635",
"%. c #E93C42",
"&. c #857077",
"*. c #80707A",
"=. c #897278",
"-. c #8A7B7E",
";. c #90777D",
":. c #E94249",
">. c #EB444B",
",. c #EA454B",
"<. c #EE454A",
"1. c #EA464D",
"2. c #EC474E",
"3. c #EF484F",
"4. c #EE494F",
"5. c #ED4950",
"6. c #EE4B50",
"7. c #D1853A",
"8. c #9C8072",
"9. c #9B8174",
"0. c #E18F46",
"q. c #E49749",
"w. c #7D7580",
"e. c #807480",
"r. c #897783",
"t. c #827B83",
"y. c #847884",
"u. c #857B84",
"i. c #877B85",
"p. c #867A86",
"a. c #877D86",
"s. c #8A7E80",
"d. c #8A7E88",
"f. c #957C80",
"g. c #937B88",
"h. c #8C8283",
"j. c #928A87",
"k. c #91868C",
"l. c #968990",
"z. c #9D8A90",
"x. c #9B8C91",
"c. c #988D93",
"v. c #9F8C90",
"b. c #9D9592",
"n. c #A0858A",
"m. c #A18C91",
"M. c #A0959B",
"N. c #A49C9A",
"B. c #A79F9D",
"V. c #9D95A0",
"C. c #A29BA3",
"Z. c #A59BA4",
"A. c #AFA4AA",
"S. c #ADA7AB",
"D. c #AFABAC",
"F. c #B4A4A5",
"G. c #B1A8AB",
"H. c #B0ACAD",
"J. c #B3ADAF",
"K. c #B7AEB3",
"L. c #B8ADB1",
"P. c #B4B0B1",
"I. c #B5B1B2",
"U. c #B6B0B2",
"Y. c #B6B2B3",
"T. c #B7B3B4",
"R. c #B9B5B4",
"E. c #BDB7B7",
"W. c #D2AB8E",
"Q. c #D6B79B",
"!. c #DBBDA5",
"~. c #C1B2B5",
"^. c #C4B4B7",
"/. c #C3B2B8",
"(. c #C6B7BA",
"). c #C6B8B8",
"_. c #C1BDBC",
"`. c #C9BABD",
"'. c #CABBBE",
"]. c #C8BCBC",
"[. c #C9BDBD",
"{. c #DDC1AB",
"}. c #C5C0BD",
"|. c #CCC0C2",
" X c #C8C4C1",
".X c #CAC4C4",
"XX c #CFCAC7",
"oX c #D1C8C9",
"OX c #D3CBC9",
"+X c #D1CCC9",
"@X c #D3CECB",
"#X c #D2CCCC",
"$X c #D6CCCD",
"%X c #D4CFCC",
"&X c #D7D2CF",
"*X c #DAD6D3",
"=X c #DDDCD8",
"-X c #E0DCDB",
";X c #E8E2E4",
":X c #EAE4E4",
">X c #EBE5E7",
",X c #EAE6E7",
"<X c #EDE7E7",
"1X c #EDECEA",
"2X c #EEEDEB",
/* pixels */
"                                                                                                    ",
"                                                                                                    ",
"                                                                                                    ",
"                                                                                                    ",
"                                                                                                    ",
"                                                                                                    ",
"                                                                                                    ",
"                                                                                                    ",
"                                                                                                    ",
"                                                                                                    ",
"                                                                                                    ",
"                                                                                                    ",
"                                                                                                    ",
"                                                                                                    ",
"                                                                                                    ",
"                                                                                                    ",
"                                                                                                    ",
"                                                                                                    ",
"                                                    0.#.O.                                          ",
"                                                  q.q.$.@.                                          ",
"                                              =X-X%X%Xb.j.R.                                        ",
"                                            1X{.{.7.7... .9.T.Y.                                    ",
"                                            1X!.Q.#.#.| } 8.Y.K.                                    ",
"                                              *X&XW.W.B.N.h.                                        ",
"                                              %X+Xo.o.{ { s.                                        ",
"                                              %XoXX.X.] ' -.                                        ",
"                                              ].].^.)./.~.m.x.c.                                    ",
"                                            %X|.'.'.].)./.m.z.l.                                    ",
"                                        XXoXF.:X:Xn.n.f.;.=.&.3 k.                                  ",
"                                      .Xp s :Xv z j j t 9 A V M K d.y.                              ",
"                                      .Xp u <Xc x k k r 0 A A M H a.t.                              ",
"                                      }.) _ ,XI P h h r q Z 5.,.M a.w.                              ",
"                                      _./ ( ;XG F u q q q F 4.>.M y.e.                              ",
"                                      E.b l Y R ! W W ! ^ 3.4.,.; y.7                               ",
"                                      R.a g H U R R R W ! <.>.:.& e.7                               ",
"                                      Y.> , , f d L L ` %.B : $ @ C.V.                              ",
"                                        L.K.L.# % $ $ = = = g.r.Z.                                  ",
"                                        D.D.G.X o o @ o + o *.6                                     ",
"                                              S.A.M.M.3 3 1                                         ",
"                                                                                                    ",
"                                                                                                    ",
"                                                                                                    ",
"                                                                                                    ",
"                                                                                                    ",
"                                                                                                    ",
"                                                                                                    ",
"                                                                                                    ",
"                                                                                                    ",
"                                                                                                    ",
"                                                                                                    "
};
