/* XPM */
static char *a908e677da0c4408af613b3b7c5290eay1TrhbNchWzpjDWB[] = {
/* columns rows colors chars-per-pixel */
"50 50 24 1 ",
"  c None",
". c #352419",
"X c #1F2E35",
"o c #292928",
"O c #5A3C28",
"+ c #5A4334",
"@ c #7B553B",
"# c #30454F",
"$ c #4E5346",
"% c #585A46",
"& c #53564F",
"* c #715441",
"= c #506552",
"- c #72745A",
"; c #5E6563",
": c #727868",
"> c #B47951",
", c #648166",
"< c #7E8376",
"1 c #928C7A",
"2 c #949A8C",
"3 c #9FA280",
"4 c #B0A996",
"5 c #CBC3AF",
/* pixels */
"                                                  ",
"                        33                        ",
"                      --3333                      ",
"                     ------33                     ",
"                      ----3-                      ",
"                      ++----                      ",
"                     33----33                     ",
"                   333-%--%+333                   ",
"                33-33---%%+--33-33                ",
"               ;333--+%-%%-%---333OO              ",
"               33333--+%--%+--33333#O             ",
"              33--33333-%%-----3--33              ",
"              3------333-%+---3----3              ",
"             ;33---33333%%---+*---33;             ",
"             -;-%%%%-----%----%%%%-O3             ",
"            O--;-%%3%--%%-%--%3%%-O-3;            ",
"           O#-OO%%O#3---%%---3#O%%;;-#            ",
"          =,@@>.  ##--%--33%-3##  .>..            ",
"         ==,@&@@  &--++-%%33--3&  @@<@O           ",
"         ==@@<&&  &--%%+--3%%-3&  &&<&&           ",
"        ===,,&&&  O,-%33%%33%-3>  $$$2:           ",
"        .OOO,@.   O&OOO@,=@@>-&2   .@@O.          ",
"        ..&..&@  O@&O@@OOOOOO@@55  @$&&>          ",
"        ##22:&&  #&<<OO@=@@OO&5o4o#&&:22          ",
"        ##232&&&#&&<:<OOOOOO&1454#&&&2-2          ",
"         #2-33-##&&<&<<&<&<<<14<2##--3-2          ",
"         ##--#%-#&<<<<<:<&<<<<2<2#-%#33           ",
"          #%-%%#&&<::&<<<<:&:2<:22#%%3-           ",
"               #&<<<:&<<<<&<<2<<22#               ",
"                &&<<<<&<<:<<<<<<22                ",
"                 #-&&%%&::<<2<2<#                 ",
"                  %--%--::::2--3                  ",
"                  #%%-3   :%%-3#                  ",
"                 #%-%33    %%-33                  ",
"                 --3--#     %--33                 ",
"                 ------     %%-33                 ",
"                 &---332   ----3#                 ",
"                 O&&&<2#    %--3#                 ",
"                 #&<<<<O    #%-##                 ",
"                 O&&O;      <%-22                 ",
"                #<<<<<      O&&<;                 ",
"               #XXO&<;XXXXXXX&<OXX                ",
"            XXXX;&&<<2XXXXXX&&O;O;XXXX            ",
"           XXXXX&O;<<XXXXXXXXO&<<:XXXX            ",
"          XXXXX&&<&OXXXXXXXXXX&<<<:XXXX           ",
"          XXX--&&<<XXXXXXXXXXXX&:<233XX           ",
"           XXX-33XXXXXXXXXXXXXXXX-33XXX           ",
"            XXX3XXXXXXXXXXXXXXXXXX-XXX            ",
"             XXXXXXXXXXXXXXXXXXXXXXXX             ",
"                   XXXXXXXXXXXX                   "
};
