/* XPM */
static char *_0c5e951adca4678c06fbe43b8f34fb8DTw7z2papR7J4rY7[] = {
/* columns rows colors chars-per-pixel */
"50 50 24 1 ",
"  c None",
". c #352419",
"X c #1F2E35",
"o c #292928",
"O c #5A3C28",
"+ c #5A4334",
"@ c #7B553B",
"# c #30454F",
"$ c #4E5346",
"% c #585A46",
"& c #53564F",
"* c #715441",
"= c #506552",
"- c #72745A",
"; c #5E6563",
": c #727868",
"> c #B47951",
", c #648166",
"< c #7E8376",
"1 c #928C7A",
"2 c #949A8C",
"3 c #9FA280",
"4 c #B0A996",
"5 c #CBC3AF",
/* pixels */
"                                                  ",
"                        33                        ",
"                      3333--                      ",
"                     33------                     ",
"                      -3----                      ",
"                      ----++                      ",
"                     33----33                     ",
"                   333+%--%-333                   ",
"                33-33--+%%---33-33                ",
"              OO333---%-%%-%+--333;               ",
"             O#33333--+%--%+--33333               ",
"              33--3-----%%-33333--33              ",
"              3----3---+%-333------3              ",
"             ;33---*+---%%33333---33;             ",
"             3O-%%%%----%-----%%%%-;-             ",
"            ;3-O-%%3%--%-%%--%3%%-;--O            ",
"            #-;;%%O#3---%%---3#O%%OO-#O           ",
"            ..>.  ##3-%33--%--##  .>@@,=          ",
"           O@<@@  &3--33%%-++--&  @@&@,==         ",
"           &&<&&  &3-%%3--+%%--&  &&<@@==         ",
"           :2$$$  >3-%33%%33%-,O  &&&,,===        ",
"          .O@@.   2&->@@=,@OOO&O   .@,OOO.        ",
"          >&&$@  55@@OOOOOO@@O&@O  @&..&..        ",
"          22:&&#o4o5&OO@@=@OO<<&#  &&:22##        ",
"          2-2&&&#4541&OOOOOO<:<&&#&&&232##        ",
"          2-3--##2<41<<<&<&<<&<&&##-33-2#         ",
"           33#%-#2<2<<<<&<:<<<<<&#-%#--##         ",
"           -3%%#22:<2:&:<<<<&::<&&#%%-%#          ",
"               #22<<2<<&<<<<&:<<<&#               ",
"                22<<<<<<:<<&<<<<&&                ",
"                 #<2<2<<::&%%&&-#                 ",
"                  3--2::::--%--%                  ",
"                  #3-%%:   3-%%#                  ",
"                  33-%%    33%-%#                 ",
"                 33--%     #--3--                 ",
"                 33-%%     ------                 ",
"                 #3----   233---&                 ",
"                 #3--%    #2<&&&O                 ",
"                 ##-%#    O<<<<&#                 ",
"                 22-%<      ;O&&O                 ",
"                 ;<&&O      <<<<<#                ",
"                XXO<&XXXXXXX;<&OXX#               ",
"            XXXX;O;O&&XXXXXX2<<&&;XXXX            ",
"            XXXX:<<&OXXXXXXXX<<;O&XXXXX           ",
"           XXXX:<<<&XXXXXXXXXXO&<&&XXXXX          ",
"           XX332<:&XXXXXXXXXXXX<<&&--XXX          ",
"           XXX33-XXXXXXXXXXXXXXXX33-XXX           ",
"            XXX-XXXXXXXXXXXXXXXXXX3XXX            ",
"             XXXXXXXXXXXXXXXXXXXXXXXX             ",
"                   XXXXXXXXXXXX                   "
};
