/* XPM */
static char *_7387d5f578941a9da27a7d0670fad9dLSCtZHS2LGhu6SWF[] = {
/* columns rows colors chars-per-pixel */
"50 50 107 2 ",
"   c None",
".  c #9A7107",
"X  c #9C7308",
"o  c #9F760B",
"O  c #A0770D",
"+  c #A2790E",
"@  c #A47A0F",
"#  c #A47B10",
"$  c #A57C11",
"%  c #A77D12",
"&  c #A87E12",
"*  c #A97F13",
"=  c #837E78",
"-  c #AA8014",
";  c #AC8216",
":  c #AD8317",
">  c #AE8317",
",  c #AC831A",
"<  c #AE8418",
"1  c #AF8418",
"2  c #AF8519",
"3  c #B08519",
"4  c #B0861A",
"5  c #B1871A",
"6  c #B2871B",
"7  c #B2881C",
"8  c #B3891D",
"9  c #B48A1D",
"0  c #B68B1D",
"q  c #B58B1F",
"w  c #B78C1E",
"e  c #B78D20",
"r  c #BA8E20",
"t  c #BB8F21",
"y  c #B88E22",
"u  c #B98F23",
"i  c #BB9023",
"p  c #BA9024",
"a  c #BB9125",
"s  c #BF9325",
"d  c #BC9226",
"f  c #BD9427",
"g  c #BD9328",
"h  c #BC9429",
"j  c #BE9428",
"k  c #BF9529",
"l  c #D2A71E",
"z  c #D6AC1F",
"x  c #DBB116",
"c  c #DDB319",
"v  c #E6BC12",
"b  c #C1962A",
"n  c #C1972D",
"m  c #C2982B",
"M  c #C49A2B",
"N  c #C2982C",
"B  c #C3992D",
"V  c #C2992F",
"C  c #C49A2E",
"Z  c #C59B2F",
"A  c #C29A30",
"S  c #C39B31",
"D  c #C59C31",
"F  c #C69C30",
"G  c #C79D31",
"H  c #C69D33",
"J  c #C79E33",
"K  c #C69F33",
"L  c #C89E33",
"P  c #C99F33",
"I  c #CCA225",
"U  c #D0A621",
"Y  c #CAA034",
"T  c #CBA135",
"R  c #CAA136",
"E  c #CCA237",
"W  c #CDA337",
"Q  c #CEA438",
"!  c #CFA539",
"~  c #D0A63A",
"^  c #D1A73B",
"/  c #D2A83C",
"(  c #D3A93D",
")  c #D4AA3E",
"_  c #D5AB3F",
"`  c #868279",
"'  c #88877F",
"]  c #D7AD41",
"[  c #D7AE41",
"{  c #D8AE42",
"}  c #D9AF43",
"|  c #DBB045",
" . c #DAB145",
".. c #DCB246",
"X. c #DCB347",
"o. c #DEB448",
"O. c #DFB549",
"+. c #E2B84C",
"@. c #E3B94D",
"#. c #E4BA4E",
"$. c #E5BB4F",
"%. c #E6BC50",
"&. c #E7BD51",
"*. c #E8BE52",
"=. c #97908B",
"-. c #9C988F",
";. c #D9C593",
/* pixels */
"                                                                                                    ",
"                     .} } } } { } } } ..} ....} } ..} } X.} ..X. .}  . .} ..{ {  .} -               ",
"                     .} u 0 8 8 7 3 3 , ; ; * ; * * * * % % % % % % # % % % O % o ] 1               ",
"                     .{ A V F F L P P L T P R T W T ~ T W W W ~ W W W W W W W W L ] 1               ",
"                     .} V Z L L L R T T T T W ~ ~ ~ ~ ~ ~ ~ ~ ~ ~ ~ ~ ~ ~ ~ ~ W J / 3               ",
"                     .} b Z R T T T ~ T ~ ~ ~ ~ / ] / / ~ / / / / / ~ / / ~ / ~ J / 3               ",
"                     .} J P T T T Q ~ ~ ~ { ( P ~ / ~ ~ ~ / ] W ( ( ( ( ( / / ~ J ( 3               ",
"                     .} P P T Q ~ / ~ { ~ ~ ( ( ( / ] ] ] ] ] ( / / { ] ( ] / ( P ~ 3               ",
"                     . .L R Q ~ ( ( { P n ( ] ] ] ] ] ] ] } } ] { { ( { ] ] ] ( k / 3               ",
"                    ..} R W ~ / ( } P ~ ( ] ] ] ] ] ] ] ] } } } { { { { { { ] { g ~ ;               ",
"                     .} J ~ / ( ] ] ] ] ] ] { } ] } } } X.| } |  . .{ ..} } } } d / 3               ",
"                     ...W ~ / ] ] W ~ { } } | } } } } X.} | | X...X.o. .......} T ~ ;               ",
"                     ...W / ( { ] T { } } } } } } } } } X.X.} X.X.X.o.o. .o... .P / 1               ",
"                     .} W ( ] { ] ~ } X.X.X.X.X.X.+.X.} X.X.+.+.o.o.o.+. .o.o.X.Z ~ ;               ",
"                     .} T ( { { } ~ } +.} X.X.X.X.| X.+.+.....+.o.+.o.+. .o...X.Z Q 3               ",
"                     .} T { { } } ( } +.+.} +.X.X.+...+.} +.+...+.+.+.+. .+.+. .J Q 3               ",
"                     .} W { }  .| ~ +...} +.X.+...+.} +.+.@.@.+.@.@.@.%.+.X.+.+.N ~ 3               ",
"                     .} L }  . .+.( ..+.+.+.+...+...+.+.+.} +.+.@.#.@.%.+.@.@.@.N ~ 3               ",
"                     .{ J  . .X.+.( +.+.+.} +.+...@.+.@.+.+.+.+.@.@.%.%.} @.@.@.F ~ 3               ",
"                     .} J X.X.X...( ..+.+.+.+.+.+...} @.+.+.+.@.%.%.#.*.@.@.@.@.F W 0               ",
"                     .} J o.o.o.X.( ..+.+.+.+.+.+.+.+.@.} @.@.@.%.%.#.*.@.%.@.@.Z W 0               ",
"                     .] J ..o. .+.] +.@.+.+.+.} +...+.} @.@.@.@.@.%.%.%.@.%.%.%.F W u               ",
"                     .} J ..X.X...] +.@.+.+.+.+.+...+.+.@.@.@.@.@.@.%.%.+.%.+.@.F T u               ",
"                     .] J  . . .} ( } @.+.....+.+.@.+.} +.@.@.@.@.%.#.%.@.@.@.+.J T r               ",
"                     .] F }  .} } ( } +.+.+.} +.} +.+.+.+.@.@.@.@.@.#.#.+.X.+.+.Z T i               ",
"                     .] L ] {  .X./ X.+.} +.} +.} +.} +.+.} +.+.+.@.@.@.} +.+.X.Z Q d               ",
"                     .( R ] ] { } ( } X.+.} +.} +.+.X.X.} +.} +...+.+.+.X.+.} +.Z T k               ",
"                     .( L / -.` ;.=.= ' +.} X.} } X.+.} +.+.} +.+.X.+.X...X.X.} G T f               ",
"                    ..( L ~ L 0 ] ~ } b X.| X.+.+.} X.X.} ..+.} X.+.X...} ..} { Z T b               ",
"                    ../ L ~ ( ] ] E ] } | } X.} } X.X.X.} +.X.X.X.+.+.} } ..{ { Z T b               ",
"                    } ~ L ~ ( ( ] P ( ] { ] ] { ] } } } } } } } } ] } } } } ..} Z P i               ",
"                    } T L W ~ ( ] ] ] } } } } | | } | | } X.} } } ....} ..} { { Z R p               ",
"                     .W F W Q ( { ( { { ] ] ] { ] ] { { { { } { } } } { ] { ] { Z F r               ",
"                    ..T A R Q / / ( { ( ( ] { { ] ] { { { { { { { { { { ] { ] ( Z P r               ",
"                     .R n R T ~ ( Y { { { { ] { { { { { { ..} ....} } ..( ] ] ( Z Z r               ",
"                     .R g P R / Q P ~ ~ ( / / ( ( ( ( ( ( ] ( { { ( ] { ( ( ( ( n P u               ",
"                     .P p P L Q T Z T ~ ~ ~ / / ( ( ( / ( ( ( ( ( ( ( { / ( / / m G u               ",
"                     .P u Z P R T n Q ~ ~ ~ ~ ~ / ~ ~ ~ ( ~ / ~ ( ( ( { ~ / ~ / Z G w               ",
"                     .Z u V P P T b T T T W ~ ~ ~ ~ ~ ~ ~ / ~ ~ / ~ ~ ( T ~ ~ W m Z u               ",
"                     .Z 0 Z F P P b T T T T T T Q Q Q ~ ~ Q Q ~ ~ ~ W ( T W T T Z Z w               ",
"                     .Z 0 V Z Z Z d P P P P P T T T T T T T T T Q Q Q ~ Y Y T T b Z 0               ",
"                     .Z ; b Z Z Z i Z Z Z J J P P P Y T T T T Y T T T Q P P Y P r Z w               ",
"                     .V , b b m Z u Z V Z Z Z P P P P P P P Y Y Y Y Y T Z P P Z 0 Z 3               ",
"                     .b * d k b m u m Z Z Z P Z J P P Y Y P P P P P Y Y Z J Z Z 7 n 3               ",
"                    } Z # p k k k P P P P P T T T T T Q T T ~ T Q T ~ Q Z Z Z Z p Z 3               ",
"                     .A + e p g b b b V Z Z Z Z Z Z Z P Z V Z Z Z Z Z Z Z Z m b b V ;               ",
"                     .n o p d k b d f b b b Z m m V Z b m Z Z V Z Z Z Z M m c b x I *               ",
"                     .A X u g g f b b b V Z b Z m Z Z Z Z b Z Z Z Z Z Z m M z v l I *               ",
"                    ] A X u p k g k k k V b V b Z Z V Z Z V Z Z m Z V V m Z b V k V *               ",
"                                                                                                    "
};
