/* XPM */
static char *result[] = {
/* columns rows colors chars-per-pixel */
"50 50 94 2 ",
"   c None",
".  c black",
"X  c #010101",
"o  c #020202",
"O  c gray1",
"+  c gray2",
"@  c #070707",
"#  c gray6",
"$  c #131313",
"%  c #232323",
"&  c gray18",
"*  c #2F2F2F",
"=  c gray19",
"-  c #313131",
";  c #3E3E3E",
":  c #3F3F3F",
">  c gray25",
",  c #484848",
"<  c #494949",
"1  c gray29",
"2  c #4B4B4B",
"3  c #4C4C4C",
"4  c gray30",
"5  c #4E4E4E",
"6  c gray31",
"7  c #505050",
"8  c #515151",
"9  c gray32",
"0  c #535353",
"q  c gray33",
"w  c #555555",
"e  c #565656",
"r  c gray34",
"t  c #585858",
"y  c gray60",
"u  c #9A9A9A",
"i  c #A0A0A0",
"p  c gray64",
"a  c #A7A7A7",
"s  c #A9A9A9",
"d  c #AAAAAA",
"f  c gray67",
"g  c #ACACAC",
"h  c gray68",
"j  c #AEAEAE",
"k  c #AFAFAF",
"l  c gray69",
"z  c #B1B1B1",
"x  c #B2B2B2",
"c  c gray70",
"v  c #B4B4B4",
"b  c gray71",
"n  c #B6B6B6",
"m  c #B7B7B7",
"M  c gray72",
"N  c #B9B9B9",
"B  c gray73",
"V  c #BBBBBB",
"C  c #BCBCBC",
"Z  c gray74",
"A  c gray",
"S  c gray75",
"D  c #C0C0C0",
"F  c #C1C1C1",
"G  c gray76",
"H  c #C3C3C3",
"J  c gray77",
"K  c #C5C5C5",
"L  c #C6C6C6",
"P  c gray78",
"I  c #C8C8C8",
"U  c gray79",
"Y  c #CACACA",
"T  c #CBCBCB",
"R  c gray80",
"E  c #CDCDCD",
"W  c #CECECE",
"Q  c gray81",
"!  c #D0D0D0",
"~  c gray82",
"^  c #D2D2D2",
"/  c LightGray",
"(  c gray83",
")  c #E9E9E9",
"_  c gray93",
"`  c #EEEEEE",
"'  c gray94",
"]  c #F1F1F1",
"[  c gray96",
"{  c #F8F8F8",
"}  c gray98",
"|  c #FBFBFB",
" . c #FEFEFE",
".. c white",
/* pixels */
"  . . . . . . . . . . . . . . . . . . . . . . . . . . . . . . . . . . . . . . . . . . . . . . . .   ",
". . . . . . . . . . . . . . . . . . . . . . . . . . . . . . . . . . . . . . . . . . . . . . . . . . ",
". # , 5 5 5 5 5 5 5 5 5 5 5 5 5 5 5 5 5 5 5 5 5 5 5 5 5 5 5 5 5 5 5 5 5 5 5 5 5 5 5 5 5 5 5 5 , $ . ",
". * ) | | | | | | | | | | | | | | | | | | | | | | | | | | | | | | | | | | | | | | | | | | | | ] : . ",
". = _  . . . . . . . . . . . . . . . . . . . . . . . . . . . . . . . . . . . . . . . . . . . .[ : . ",
". = _  . . . . . . . . . . . . . . . . . . . . . . . . . . . . . . . . . . . . . . . . . . . .[ : . ",
". = _  . . . . . . . . . . . . . . . . . . . . . . . . . . . . . . . . . . . . . . . . . . . .[ : . ",
". = _  . . . . . . . . . . . . . . . . . . . . . . . . . . . . . . . . . . . . . . . . . . . .[ : . ",
". = _  . . . . . . . . . . . . . . . . . . . . . . . . . . . . . . . . . . . . . . . . . . . .[ : . ",
". = _  . . . . . . . . . . . . . . . . . . . . . . . . . . . . . . . . . . . . . . . . . . . .[ : . ",
". = _  . . . . . . . . . . . . . . . . . . . . . . . . . . . . . . . . . . . . . . . . . . . .[ : . ",
". = _  . . . . . . . . . . . . . . . . . . . . . . . . . . . . . . . . . . . . . . . . . . . .[ : . ",
". = _  . . . . . . . . . . . . . . . . . . . . . . . . . . . . . . . . . . . . . . . . . . . .[ : . ",
". = _  . . . . . . . . . . . . . . . . . . . . . . . . . . . . . . . . . . . . . . . . . . . .[ : . ",
". = _  . . . . . . . . . . . . . . . . . . . . . . . . . . . . . . . . . . . . . . . . . . . .[ : . ",
". = _  . . . . . . . . . . . . . . . . . . . . . . . . . . . . . . . . . . . . . . . . . . . .[ : . ",
". = _  . . . . . . . . . . . . . . . . . . . . . . . . . . . . . . . . . . . . . . . . . . . .[ : . ",
". = _  . . . . . . . . . . . . . . . . . . . . . . . . . . . . . . . . . . . . . . . . . . . .[ : . ",
". = _  . . . . . . . . . . . . . . . . . . . . . . . . . . . . . . . . . . . . . . . . . . . .[ : . ",
". = _  . . . . . . . . . . . . . . . . . . . . . . . . . . . . . . . . . . . . . . . . . . . .[ : . ",
". = _  . . . . . . . . . . . . . . . . . . . . . . . . . . . . . . . . . . . . . . . . . . . .[ : . ",
". = _  . . . . . . . . . . . . . . . . . . . . . . . . . . . . . . . . . . . . . . . . . . . .[ : . ",
". = _  . . . . . . . . . . . . . . . . . . . . . . . . . . . . . . . . . . . . . . . . . . . .[ : . ",
". = _  . . . . . . . . . . . . . . . . . . . . . . . . . . . . . . . . . . . . . . . . . . . .[ : . ",
". = _  . . . . . . . . . . . . . . . . . . . . . . . . . . . . . . . . . . . . . . . . . . . .[ : . ",
". = _  . . . . . . . . . . . . . . . . . . . . . . . . . . . . . . . . . . . . . . . . . . . .[ : . ",
". = _  . . . . . . . . . . . . . . . . . . . . . . . . . . . . . . . . . . . . . . . . . . . .[ : . ",
". = _  . . . . . . . . . . . . . . . . . . . . . . . . . . . . . . . . . . . . . . . . . . . .[ : . ",
". = _  . . . . . . . . . . . . . . . . . . . . . . . . . . . . . . . . . . . . . . . . . . . .[ : . ",
". = _  . . . . . . . . . . . . . . . . . . . . . . . . . . . . . . . . . . . . . . . . . . . .[ : . ",
". = ]  . . . . . . . . . . . . . . . . . . . . . . . . . . . . . . . . . . . . . . . . . . . .| > . ",
". % h N N N N N N N N N N N N N N N N N N N N N N N N N N N N N N N N N N N N N N N N N N N N x * . ",
"+ . + + + + + + + + + + + + + + + + + + + + + + + + + + + + + + + + + + + + + + + + + + + + + + . . ",
". . . . . . . . . . . . . . . . . . . . . . . . . . . . . . . . . . . . . . . . . . . . . . . . . . ",
", , , , , , 5 5 5 5 5 5 8 8 8 8 8 8 q q q q q t t t q q q q q 8 8 8 8 8 8 5 5 5 5 5 5 , 5 , , , , , ",
"f x x x v v v N N Z Z D D D L L L U U Q Q ! ! ( ( ! ! ! Q Q U U U L L L D D Z Z N N N N v x x x h f ",
"f h h x x v v N N N Z Z D D D L L U U U Q Q ! ! ( ! ! Q Q Q U U L L L D D Z Z Z N N v v v x x h h f ",
"f h h x x v v N N Z Z Z D D D L L U U U Q Q ! ! ( ! ! Q Q Q U U L L L D D Z Z Z N N v v v x x h h f ",
"a h h x x v v N N N Z Z D D D L L U U U Q Q ! ! ( ! ! Q Q Q U U L L L D D Z Z Z N N v v v x x h h f ",
"i f h x x x v v N N N Z Z D D D L L U U U U Q Q ! Q Q Q U U U L L L D D Z Z Z N N v v v x x x h h i ",
"                                        x x x x v x x x x x                                         ",
"                                        v v v v v v v v v v                                         ",
"                                        Z Z Z Z Z Z Z Z Z Z                                         ",
"                                        U U U U U U U U U U                                         ",
"                                        ! ! ! ! ! ! ! ! ! !                                         ",
"                                      ! ! ! ! ! ! ! ! ! ! ! !                                       ",
"                                      Z Z Z Z Z Z Z Z Z Z Z Z                                       ",
"                                    f h h h h h h h h h h h h f                                     ",
"                                  i i i i i i i i i i i i i i i i                                   ",
"                                  y y y y y y y y y y y y y y y y                                   "
};
