/* XPM */
static char *_46bff64f60d4311dafe8084402e3a16OeYWvUQQSSYlY6j9[] = {
/* columns rows colors chars-per-pixel */
"50 50 216 2 ",
"   c None",
".  c #030507",
"X  c #1B0202",
"o  c #150000",
"O  c #16041D",
"+  c #05130F",
"@  c #2E0800",
"#  c #391A1A",
"$  c #341B14",
"%  c #3C2214",
"&  c #01052A",
"*  c #1B163B",
"=  c #110D23",
"-  c #24162C",
";  c #381B3B",
":  c #2E1A30",
">  c #2C2829",
",  c #28322A",
"<  c #23253F",
"1  c #2D3834",
"2  c #3D332B",
"3  c #531B07",
"4  c #561C19",
"5  c #491A14",
"6  c #492917",
"7  c #5F2608",
"8  c #78341D",
"9  c #672D13",
"0  c #4B1D28",
"q  c #56242C",
"w  c #473221",
"e  c #572935",
"r  c #593A36",
"t  c #462423",
"y  c #642B2A",
"u  c #712C2F",
"i  c #63382A",
"p  c #6B3635",
"a  c #793D36",
"s  c #702F32",
"d  c #7A4D2F",
"f  c #67423C",
"g  c #291D5F",
"h  c #19244B",
"j  c #1F2B43",
"k  c #1B334B",
"l  c #232847",
"z  c #33284B",
"x  c #2B2B5C",
"c  c #362958",
"v  c #253656",
"b  c #383859",
"n  c #33354C",
"m  c #1E3368",
"M  c #392A65",
"N  c #2A3461",
"B  c #35386B",
"V  c #3B3A71",
"C  c #29356B",
"Z  c #452348",
"A  c #523553",
"S  c #6B3F54",
"D  c #403C61",
"F  c #463B73",
"G  c #344147",
"H  c #304250",
"J  c #334262",
"K  c #254479",
"L  c #364175",
"P  c #42474B",
"I  c #555B53",
"U  c #595B56",
"Y  c #575A58",
"T  c #4F4953",
"R  c #6D5B4F",
"E  c #715855",
"W  c #5E6156",
"Q  c #5B625B",
"!  c #616648",
"~  c #626D5F",
"^  c #78624A",
"/  c #434167",
"(  c #434678",
")  c #4B5C78",
"_  c #555179",
"`  c #705969",
"'  c #5C6765",
"]  c #656962",
"[  c #696765",
"{  c #6B746C",
"}  c #776A78",
"|  c #777876",
" . c #73736A",
".. c #88391C",
"X. c #802C2A",
"o. c #95392A",
"O. c #8C3635",
"+. c #843A34",
"@. c #893C35",
"#. c #953737",
"$. c #9B4127",
"%. c #894436",
"&. c #9B4A3D",
"*. c #9C5736",
"=. c #894C29",
"-. c #AC4C34",
";. c #A64B39",
":. c #A95637",
">. c #B45539",
",. c #AC5234",
"<. c #A9683D",
"1. c #B6703D",
"2. c #884A42",
"3. c #8D5B59",
"4. c #8D5846",
"5. c #A25449",
"6. c #A65945",
"7. c #BB5341",
"8. c #B55A46",
"9. c #A74941",
"0. c #8A6B46",
"q. c #9B684D",
"w. c #A8604B",
"e. c #AA6351",
"r. c #935C61",
"t. c #87796C",
"y. c #93726B",
"u. c #867772",
"i. c #8C6962",
"p. c #B17F64",
"a. c #C87D56",
"s. c #80867C",
"d. c #BD8B6E",
"f. c #A09661",
"g. c #BB9B6E",
"h. c #A0A175",
"j. c #DA8C68",
"k. c #C8946C",
"l. c #EB9D79",
"z. c #D1A876",
"x. c #C6C67E",
"c. c #34528A",
"v. c #3B6CBA",
"b. c #3F6CA8",
"n. c #434888",
"m. c #4D5E98",
"M. c #4E5489",
"N. c #4B629D",
"B. c #56679A",
"V. c #59658D",
"C. c #666E84",
"Z. c #73798E",
"A. c #465DA1",
"S. c #496BA9",
"D. c #5668A6",
"F. c #4372A9",
"G. c #4876B6",
"H. c #5677B6",
"J. c #4E6AB9",
"K. c #6378B6",
"L. c #6874A6",
"P. c #4D6BC1",
"I. c #5574C4",
"U. c #877C84",
"Y. c #8F7693",
"T. c #5D829D",
"R. c #759294",
"E. c #5E86BA",
"W. c #6883B3",
"Q. c #6B8DB5",
"!. c #5999CC",
"~. c #5C8EC3",
"^. c #6A89CD",
"/. c #6B96CE",
"(. c #6A97C7",
"). c #7096D4",
"_. c #7A8EC0",
"`. c #64A9D3",
"'. c #7BA8E1",
"]. c #878D8B",
"[. c #968B85",
"{. c #879B8A",
"}. c #989788",
"|. c #878995",
" X c #849995",
".X c #889994",
"XX c #9B9899",
"oX c #99879F",
"OX c #A1948D",
"+X c #ACA296",
"@X c #8399A6",
"#X c #9D93AE",
"$X c #97A8B2",
"%X c #B7AAA8",
"&X c #B0AFAA",
"*X c #DCBB8C",
"=X c #CEB08E",
"-X c #E3BB8B",
";X c #EEBA94",
":X c #D8B5A6",
">X c #C4BBB6",
",X c #D6C78C",
"<X c #EDC79B",
"1X c #F7C19C",
"2X c #E6D097",
"3X c #FFD894",
"4X c #C8C7A8",
"5X c #FADAAD",
"6X c #F6E1AC",
"7X c #B2AAC2",
"8X c #BEB1C2",
"9X c #A3D8FF",
"0X c #AEE0FF",
"qX c #D5D1C5",
"wX c #E7DCD8",
"eX c #F0EBCB",
/* pixels */
"                                             .i.y.u.y.                                              ",
"                                          2 &.:.-.;.:.i.                                            ",
"                                          f o.<.>.>.:.4.                                            ",
"                                          ;.>.:.>.;.;.*.                                            ",
"                                      % % -.:.>.;.$.o.:.$                                           ",
"                                      3 3 j.1.7...8 8 l.%.                                          ",
"                                      5.5.a.a.e.0.-X-X8 8.                                          ",
"                                      @.@...j.9 @ 2X2X4 8.}.                                        ",
"                                      O.O.o.-.=.Z ,X,Xq *.6                                         ",
"                                      O.O.8.o.-Xo 6X5X3.7 6                                         ",
"                                      #.O.o.$.z.6X5X5Xd.3 p                                         ",
"                                      X.u o.$.k.g.5X5Xp.7 i                                         ",
"                                      a +.#.,.<.1X;X-X5 q OX                                        ",
"                                      @ @ +.7.=.g.q.q.A * < R.                                      ",
"                                          y ,.i o o o c.(.B..X                                      ",
"                                          OX7 O n f.f.J.`./.k {.                                    ",
"                                          + g./ eXC.C.S.F.(._.R. X                                  ",
"                                        .Xv +XeX=XG.v.N & K D.k k                                   ",
"                                      G G V.Z.,XR.!.!.L O & K Q.W.                                  ",
"                                      l j J G.,XS.9X9XC + $XQ.N.D.                                  ",
"                                      b x B ~.x.v (.(.L / k ).z c                                   ",
"                                      < l N ^.h.} ) ) * :X].S.A A                                   ",
"                                      b b < L W %X7X&X^ *X<XA s p                                   ",
"                                      M B * Y U.%X#X#X0.*X3XA a a                                   ",
"                                    ' F V 8X4XY.oX|.|.r R z.} t.t.                                  ",
"                                    &X&X%XE e } S R ! C.m.R.                                        ",
"                                &XXX} e e S e _ ( @X@XE.m T..X                                      ",
"                    s.qXqX      wX| # 4 4 %.r H.K.).).G.K Q.@X                                      ",
"                     .>X%X>XqX&XT Z 2.<X;X:XB M.b.J.P.c./.9Xn                                       ",
"                    [ wXwX[ [ > +X0 =X,X2X;Xm.H.m D.D.H.'.9XH                                       ",
"                    1 > : , 1 .X  t k.;X;Xr.S.P.L.P P I.)./.H                                       ",
"                                    y.` ` m.v.M.H , , H.F.J.                                        ",
"                                    ].D / H.b.c .     W.G.D.                                        ",
"                                  ].z C B B.) 1       S.^.h                                         ",
"                                  = M n.c.n.x         B.K.l                                         ",
"                                  z x V V F C.        ( N b                                         ",
"                                .Xc M M b <           B J F =                                       ",
"                                . c M - -             x J g z  X X                                  ",
"                                - c D                 b x ( V h h                                   ",
"                              }.p ; =                 |.* V C V B XX                                ",
"                              w 5.e Z.                  |.l / Z Z #                                 ",
"                              6 %.q                       .Xz r.r.d                                 ",
"                            }.q y @                         t @.%.k.                                ",
"                          R R p e X                         t.+.+.6.                                ",
"                          6.w.6.y $                         }.u u a p                               ",
"                          +.+.%.e ` ' Y I                   w e.6.8.8                               ",
"                          p p p # I Q U U { |  .            i 8.8.k.d                               ",
"                          [.[.XX].    { [ I I I I U U U W W p 7.>.<.6.}.                            ",
"                                      { { ] ] ~ ] ] ] U ! Y R 9.5.6.9.}.                            ",
"                                                                                                    "
};
