/* XPM */
static char *_0177443659b4cc9c27b73fce7dbb4eauVL4XiHmnKJsfHrA[] = {
/* columns rows colors chars-per-pixel */
"50 50 240 2 ",
"   c #0B0C0D",
".  c #100C0D",
"X  c #0C120D",
"o  c #11130C",
"O  c #16180B",
"+  c #0D0D13",
"@  c #0F0E1C",
"#  c #110E18",
"$  c #061011",
"%  c #0C1214",
"&  c #0D151D",
"*  c #131414",
"=  c #181716",
"-  c #141A15",
";  c #1A1C16",
":  c #13141B",
">  c #19161D",
",  c #151B1C",
"<  c #1B1B1C",
"1  c #251E1C",
"2  c #1A241A",
"3  c #1B231C",
"4  c #23271C",
"5  c #0C0E22",
"6  c #100E24",
"7  c #0E1622",
"8  c #0C1E20",
"9  c #141522",
"0  c #191524",
"q  c #151A23",
"w  c #1B1C24",
"e  c #14172A",
"r  c #1A1529",
"t  c #161C2A",
"y  c #1C1C2A",
"u  c #1C1B31",
"i  c #211B24",
"p  c #211E2C",
"a  c #231F36",
"s  c #1D2323",
"d  c #192427",
"f  c #1D232B",
"g  c #1D2A2A",
"h  c #1E2332",
"j  c #1E2A34",
"k  c #222224",
"l  c #242A25",
"z  c #2B2B25",
"x  c #23242C",
"c  c #29262A",
"v  c #232B2C",
"b  c #2B2C2C",
"n  c #302C2B",
"m  c #23322D",
"M  c #2B322D",
"N  c #24382C",
"B  c #303C2E",
"V  c #232433",
"C  c #292733",
"Z  c #242B34",
"A  c #2A2D34",
"S  c #23253A",
"D  c #282538",
"F  c #242B3B",
"G  c #2B2D3A",
"H  c #312D37",
"J  c #253334",
"K  c #2B3335",
"L  c #2D3B35",
"P  c #253239",
"I  c #2B333C",
"U  c #273A38",
"Y  c #2D3B3C",
"T  c #313533",
"R  c #313B36",
"E  c #3C3A37",
"W  c #32353C",
"Q  c #333C3D",
"!  c #393B3A",
"~  c #2B4637",
"^  c #2E423B",
"/  c #33403B",
"(  c #354239",
")  c #434037",
"_  c #1C3452",
"`  c #262D41",
"'  c #252844",
"]  c #2B2E42",
"[  c #332F4A",
"{  c #263444",
"}  c #2C3343",
"|  c #2D3B43",
" . c #2D334A",
".. c #2E3B4A",
"X. c #323443",
"o. c #333B43",
"O. c #393D44",
"+. c #32354B",
"@. c #343B4B",
"#. c #3A3E4C",
"$. c #312D52",
"%. c #2D3A53",
"&. c #343D53",
"*. c #3B3D53",
"=. c #353E5B",
"-. c #3D3B60",
";. c #413E4F",
":. c #413F54",
">. c #2F4546",
",. c #354243",
"<. c #3B4445",
"1. c #354844",
"2. c #3D4A44",
"3. c #35424C",
"4. c #3B434D",
"5. c #36494B",
"6. c #3D4B4C",
"7. c #364353",
"8. c #3B4353",
"9. c #364A51",
"0. c #344A52",
"q. c #3D4A54",
"w. c #34415B",
"e. c #3C445A",
"r. c #364B5C",
"t. c #3C4B5B",
"y. c #3E5256",
"u. c #374963",
"i. c #3E4C64",
"p. c #444847",
"a. c #41444C",
"s. c #434B4D",
"d. c #485943",
"f. c #45514D",
"g. c #4B554F",
"h. c #52594E",
"j. c #424553",
"k. c #434B54",
"l. c #4A4D55",
"z. c #43455C",
"x. c #444C5B",
"c. c #494D5D",
"v. c #504F5D",
"b. c #445253",
"n. c #4B5354",
"m. c #4E5A53",
"M. c #45535C",
"N. c #4B535C",
"B. c #445A59",
"V. c #4E595D",
"C. c #535554",
"Z. c #535C54",
"A. c #55575D",
"S. c #535B5C",
"D. c #576557",
"F. c #54625D",
"G. c #444563",
"H. c #444D62",
"J. c #4A4E62",
"K. c #46496C",
"L. c #4C4B6C",
"P. c #435364",
"I. c #445767",
"U. c #4B5463",
"Y. c #4D5A63",
"T. c #4C556A",
"R. c #4C5B6B",
"E. c #525462",
"W. c #535C64",
"Q. c #5A5D65",
"!. c #52566C",
"~. c #535B6B",
"^. c #5A5B6F",
"/. c #494872",
"(. c #534E74",
"). c #4A5373",
"_. c #4E5D72",
"`. c #4F547A",
"'. c #4E5C7A",
"]. c #525575",
"[. c #535C73",
"{. c #5A5C73",
"}. c #545C7D",
"|. c #615869",
" X c #4F606A",
".X c #556164",
"XX c #5B6464",
"oX c #566965",
"OX c #5D6A63",
"+X c #55626B",
"@X c #5C646C",
"#X c #5C696C",
"$X c #4E6379",
"%X c #566372",
"&X c #5B6473",
"*X c #5C6A73",
"=X c #576579",
"-X c #5D647A",
";X c #616566",
":X c #636D63",
">X c #61666C",
",X c #626D6C",
"<X c #696D6E",
"1X c #65736E",
"2X c #616472",
"3X c #666977",
"4X c #646C75",
"5X c #636B7B",
"6X c #6A6D79",
"7X c #667173",
"8X c #6B7274",
"9X c #6B7974",
"0X c #63727F",
"qX c #6B727A",
"wX c #6D7A7B",
"eX c #747879",
"rX c #737A7C",
"tX c #7C847C",
"yX c #585D85",
"uX c #5C6283",
"iX c #596983",
"pX c #636584",
"aX c #656B82",
"sX c #6B6D85",
"dX c #6B7587",
"fX c #6F718E",
"gX c #737B81",
"hX c #787A87",
"jX c #75758A",
"kX c #768389",
"lX c #7C8895",
"zX c #7F9098",
"xX c #7B84A1",
"cX c #858987",
"vX c #83858D",
"bX c #848B98",
"nX c #8A979D",
"mX c #848CA1",
"MX c #8B95A4",
"NX c #90A2A2",
/* pixels */
"&X-X].U.s.R v f O = * @ * , c A T ! O.p.c.V.k.o.4.s.s.:.j.n.V.[.U.x.J.8.X.g d W q.XX+X+X[.T.%.{ | b.",
"@X-X`.H.<.B g t * k x x C x p p n b b ! j.k.4.,.s.k.j.q.k.f.x.J.H.8.} v s s Z o.H.%X+XR.=X).@.X.>.y.",
"+X+XP.q.X.f t S b 4.l.a.O.X.n 1 z l 4 c W X.@.8.p.k.N.E.V.k.8.e.#.o.f : , d , Q T.%X}.yX'._.Y.n.i.H.",
"P.P.P.q.I y e j X.N.:X>X^.E.j.) W c = s I I W O.4.8.j.6.2.4.4.e.8.+.Z f , , q I t.+X-XuX_.[.=X.X X X",
"t.t.q...V , q F 8..X9XwXsX2XQ.h.*.D , s A v A o.@.#.o.L Q Q 4.R.R.H.z.O.q & 7 P t.F.-X}.Y.R.yX[.%X%X",
"z.7...Z d : t G 6..X*X*X&X@XW.N.e.D & d g , s K @.X.I K / 6.Y.dXkXgX4XY.P 7 & P N..X~.T.t.i.).R.L.).",
"x.8...Z d * , Z k..X+XY.W.W.S.N.8.I , s v s y x C f 3 m ,.k.5XlXnXnXgX.XY q $ P M.R.T.M.i.i.R.[.).).",
"8.7.@.Y v - % w @.b.F.n.U.U.N.f.4.K s M Q G x y , X - l O.E.sXlXbXbXwXn.I , $ A 4.K.T.W.'.i.F.&X$X$X",
"&.&.@.@.A < @ : S I ( p.4.+.I T T l ; v W x i w * X ; b 2.@XgXqXqX6XQ.a.c % $ s I i.T.~.'.I. X%X'.$X",
"&.&.....I y : 9 y y v I K k , w 4 3 > c b > < 4 * X ; k O.@X8XZ.A.v.l.O.> @   < A #.T.'.yX$X+XY.`.(.",
"c.u.| K h 9 * r u f f a D C y 6 k i x c 1 : = ; o   @ y C +.v.E.A.C.E 4 = + + > h ' 4.b.K.).$XyXK.].",
"a.8.,.K h : * 9 y V F W O.;.O.A W } I Q W X.} o.! A v x y V ] +.a.p.z * o     # u a ,.M.L.K.I.K.J.~.",
"<.<.Q M d + X & s } 4.f.Z.;XOXD.a.8.4.f.C.^.@X%X4X@Xk.W d , q u Z C ,         . 0 w o.N.(.G.t.H.c.E.",
"2.Q M k *     : f Y y.q.V.,XrXwX7X#XF.D.:X8XqX7XaX4XW.p.Q T G D x y , = > # . . + 0 A k.L.G.q.M.].{.",
"a.X.x , X   % - j | 5.e.x.XX9XgXtXqXoXD.:X6XqX<X&X>X.XZ.h.Z.n.j.H C y s i =     X 9 A >.G.x.B.B.R.~.",
"+.W C r     : s ,.%.r.M.~.~.R.oX@X~.U.n.;XqXjXqX7X4X#XXXD.:XXXN.a.W C c i =     X t P | 8.M.6.5.4.j.",
"G c x r : : u v ( 1.M..X#X~.M.b.A.N.8.a.Q.jXhXeXeX8X6X4X>XqXqX>Xm.k.o.I l 3 2 & 8 h P J X.,./ L T o.",
"x < > 9 > x ' I / 2.m.+X@X#X#X+XZ.k.4.s.;XcXcXtXcXrXjXsX2X5XqX2X,XoXU.4.Y ^ Y N v A d 8 w x N Q A I ",
"p w > > 9 k J ..8.n.Z.A.W.XX*XiXF.N.q.s.;XcXnXmXvXhXtXtXrXqX-X5X7X1X&XE.) d.F.4.$.} j j D G K L ] X.",
"w 1 < y w f K 7.#.x.N.S.S.W.+X=X#XN.8.8..XcXMXMXvXhXrXeX4X2X^.@X<XqX2XQ.1X:XoXV.=.4.Q I T W o.| X.W ",
"k 2 ; 1 x v I &.@.=.G.N.N.J.T.W.A.k.&.@.x.4XvXbXcX8X#XW.x.E.W.S.Q.2XQ.@X4X@XXXQ.Q.Z.n.a.8.O.1.,.W c ",
"b < o w x m J } 7.&.&.8.M.N.N.Z.C.N.x.&.q.W.eXeX<XS.s.| G 8.n.n.Q.2X<X<X-X-X@X6X:X:X@X5X!.n.f.f.#.P ",
"W s * , x l v A 7.3.4.8.k.m.g.C.C.S.W.k.8.N.Q.h.a.O.R M A o.j.N.W.@XeXrXsXfXrX6X>X8X9XqX4XXXD.+XU.8.",
"} s , > , 2 2 g  .o.,.8.4.2.p.s.s.n.Y.x.k.N.l.T D f v Q 2.O.#.N.V.A.8XgXjXlXjX6X3XrXrX5X&X<X8X4X2XQ.",
"I v 3 q : - 2 d V K | o.o.Y Q 1.1.k.k.z.c.J.4.g 0 w I 6.E.c.k.Y.S.F.<XqXgXkXjX6XrXeXsXpXaX6XqXiX6X6X",
"Q b 3 q 9 , q e x V G / ^ | | o.| O.4.*.:.:.X.d 1 b o.k.&X&XS.F.oXD.F.XX8XqXuXjXjX6X6XjXhXsXsXpX4X6X",
"<.} V = - y f < d t F P I +. .} I @.&.@.O.,.I h C [ *.z.N.OX#X@X*X,XQ.v.D.XX*X7XjX4X+X#X6X4X&X7X1X>X",
"4.o.v w > < p i t w Z D ` } I ] I } } o.,.,.Y P W @.*.8.b.B. X~..X;XQ.N.C..X+X#X#X>X~.k.J.W.@XXX#X>X",
"H.4.W C w ; 1 i y > 3 x V A v D P j J | 3.>.U L 4.6.y.9.7.9.y.Y.W.@XQ.C.b.V.V.A.S.#X.Xq.8.k.c.n.v.v.",
"R.q.@.} c > = 1 < 9 w < k D V x S f g U @.{ P U 4.6.2.5.7.7.q.y.N.!.A.g.k.n.h.c.x.Y.F.n.p.#.o.#.;.8.",
"~.e...| g q < < p r 9 = w D h y u r d Z ` ' Z m A K Q Q 3.7.7.4.j.z.j.p.t.N.n.x.8.q.6.2.p.o.o.@.O.3.",
"%Xu.%.Y Z f g 4 a 9 @ 6 w k w e w w w u u S Z A x v K o.3.#.@.Q #.@.o.O.8.8.4.8.o.1.,.3.8.*.O.Q >.Q ",
"%XU.*.} P F J L S f w 9 y s q t 4 s f y y V x x c c G } o.Y } I X.! W X.,.o.} X.L Q o...&.*.o.Q Y ^ ",
"{.W.j. .j U Y >.o.} G l k Z V g 2 s t y w w w w p p D F J P P I I M A } Q I D A A J Z F } } I | ^ U ",
"V.W.H.' ` U L o.7.6.6.,...} U m 4 g d t > : : : 0 r y t f f x I S C A I I F A P U h D ' S t h K I | ",
"H.t.7.{ I L K +.8.t.M.q.9.| I K s s , , : @ : = 0 9 9 w t 9 9 q x C b x x Z I Y U Z u y 9 9 t x J U ",
"u...U Y 3.,.1.z.Y. X XI.P.b.3...I m 2 - 6 5 : < @ @ : 9 q : q : w y k 2 w f F U g x y r : : q y Z G ",
"w.j m | 7.M. X4X0XiX0X$X*X+Xx.4.4.K s d 9 6 6 9 = . * * , , q = : = > > t y d q , , < < , w y V V V ",
"{ s s { w.P.oXwXxXnXzXkXdXaXT.k.4.I j Z Z q 9 0 = = = - % % - % # # * 0 y y e e 3 : > < 3 3 k x g J ",
"Z k s F +.t.B.*XxXMXNXnXdXuXU.k.O.I F | Y v w 0 < ; ; = X * * X : : 9 p p r t Z v 3 : k l g b C J I ",
"v d f j } ,.5.T.iXlXzXkXiXR.k.:.*.@.| ,.,.o.A p f c k < , , , : > , s y w w c A n z c c v L L K Y | ",
"g g g v W Q #./.-XdXkXaX%X Xc.G.e.j./ / | 4.o.c W W C w w q : : q w k < i k k k z b A b K ( L B l J ",
"s s d J o.&.4.k.%X@X*X+X[.{.{.|.!.c.@.o.,.K K n j.a.z -   > = d ; s x v , ; , - 1 z E E o.o.W m > 4 ",
"k 3 g P @.3.8.7.U.+X+XR.H.T.U.l.W.x.@.3.Y f x X.j.! 2 = = < w J T o.4.k.Q J K A D W ! ! O.4.O.W c 4 ",
"4 m F { 9.9.3.%.@.N.R.I.u.r.r.1.V.q.O.@.} 7 y +.4.W 3 = > y v Y o.4.x.W.N.4.k.*.7.@.Q Q O.j.j.#.W p ",
"L Q ..7.r.y.>...O.q.H.H.r.7.9.y.N.q.7.@.S 7 e  .#.a.I k @ w v Y @.@.q.U.N.T.{.).e.4.o.o.O.*.j.a.o.f ",
"@.4.9.u.i.i.9.1.p.s.k.M.t.e.i.R.M.U.x.X.V t a ] ;.k.#.C + & d | q.M.P.N.M.~.-X}.x.<.! ( O.@.*.4.#.D ",
" .@.q.I.).R.U.b.b.V.W.U.z.U.R.[.R.R.z.I c C H ] :.j.+.x $ + g | M.W.+XY.M.E.{.].k.<.Q o.4.8.9.3.8.@.",
"{ G @.H.I.[.=X[.!.{.{.~.~.~.%X$XR.P.y.U N K D $.;.a.O.c o ; b ,.4.N.U.U.M.R.~.H.&.......w.r.9.3.&.@.",
"I h ` 8.x.~.pXyXyXyXuXaX%XY.$XiXI.5.>.~ ~ v j $.;.c.p.b O 4 T Q Y O.e.J.T.R.T.&._ _ %.w.w.w.3.,.@. ."
};
